<?xml version="1.0" encoding="iso-8859-1"?>
<!-- Generator: Adobe Illustrator 16.0.0, SVG Export Plug-In . SVG Version: 6.00 Build 0)  -->
<!DOCTYPE svg PUBLIC "-//W3C//DTD SVG 1.1//EN" "http://www.w3.org/Graphics/SVG/1.1/DTD/svg11.dtd">
<svg version="1.1" id="Layer_1" xmlns="http://www.w3.org/2000/svg" xmlns:xlink="http://www.w3.org/1999/xlink" x="0px" y="0px"
	 width="800px" height="800px" viewBox="0 0 800 800" enable-background="new 0 0 800 800" xml:space="preserve">
<g>
	<g>
		<g>
			<path fill="#D7001E" d="M324.81,391.63c0,0,0,5.491,0,8.107c0.784-1.568,5.754-9.938,15.953-9.938h3.139v13.86h-3.139
				c-9.153,0-14.384,6.8-14.384,15.17v31.122h-16.477v-58.323L324.81,391.63L324.81,391.63z"/>
		</g>
		<g>
			<path fill="#D7001E" d="M495.329,420.137c0-8.891-7.324-15.953-16.477-15.953c-8.894,0-16.216,6.801-16.216,15.429
				c-0.262,8.893,6.801,16.479,16.216,16.479h16.477V420.137z M496.638,398.691v-7.062h14.907v79.247h-16.478v-20.66h-16.999
				c-17.262,0-30.86-13.602-30.86-30.34c0-17.262,14.122-30.338,29.813-30.338C490.099,389.538,496.638,398.691,496.638,398.691z"/>
		</g>
		<g>
			<path fill="#D7001E" d="M293.426,391.63v58.584h-16.479V391.63H293.426z M293.426,369.922v14.125h-16.479v-14.125H293.426z"/>
		</g>
		<g>
			<path fill="#D7001E" d="M231.703,384.044c-10.462,0-19.093,8.107-19.093,18.047v8.369h29.555v-26.416H231.703z M242.426,450.214
				v-26.676h-29.554v26.414h-16.737v-46.555c0-18.568,15.953-33.476,35.568-33.476h27.198v80.03h-16.476V450.214z"/>
		</g>
		<g>
			<path fill="#D7001E" d="M435.701,369.922v14.125h-16.478v-14.125H435.701z M435.701,391.63v58.584h-16.478V391.63H435.701z"/>
		</g>
		<g>
			<path fill="#D7001E" d="M617.729,369.922v14.125h-16.476v-14.125H617.729z M617.729,391.63v58.584h-16.476V391.63H617.729z"/>
		</g>
		<g>
			<path fill="#D7001E" d="M526.191,391.63h16.479v32.691c0,8.893,6.538,13.601,13.077,13.601c6.276,0,13.338-4.185,13.338-13.601
				V391.63h16.478v58.584h-15.17v-7.06l-0.262,0.259c-4.707,5.494-11.507,8.631-19.354,8.631c-12.556,0-24.585-10.461-24.585-25.369
				L526.191,391.63z"/>
		</g>
		<g>
			<polygon fill="#D7001E" points="386.794,369.922 386.794,436.092 408.238,436.092 408.238,450.214 370.317,450.214 
				370.317,369.922 			"/>
		</g>
		<g>
			<path fill="#D7001E" d="M677.358,421.708c0,8.89-7.322,15.952-16.476,15.952c-8.893,0-15.954-6.801-16.216-15.432
				c-0.262-8.89,6.801-16.477,16.216-16.477h16.476V421.708z M678.929,442.893v7.06h14.907v-80.03h-16.479v21.447h-16.998
				c-17.262,0-30.861,13.6-30.861,30.339c0,17.262,14.123,30.339,29.814,30.339C672.128,452.044,678.929,442.893,678.929,442.893z"
				/>
		</g>
		<g>
			<path fill="#D7001E" d="M721.297,415.431h33.476c-2.353-7.324-7.844-12.292-16.214-12.292
				C730.189,403.139,723.913,408.368,721.297,415.431z M738.82,452.044c-18.309,0-33.217-13.86-33.217-31.122
				s14.908-31.124,33.217-31.124c18.307,0,31.906,13.862,31.906,31.124c0,1.568,0,3.399-0.262,5.232h-49.169
				c2.354,7.321,8.893,12.554,17.262,12.554c7.845,0,12.555-2.354,16.478-7.063l11.768,7.583
				C760.527,447.074,750.851,452.044,738.82,452.044z"/>
		</g>
		<g>
			<path fill="#375F9B" d="M100.15,329.123H29.273v70.876c0,39.232,31.646,70.878,70.877,70.878
				c39.229,0,70.876-31.648,70.876-70.878C171.026,361.029,139.38,329.123,100.15,329.123z M150.365,450.214H100.15
				c-27.723,0-50.216-22.491-50.216-50.215c0-27.723,22.492-50.217,50.216-50.217s50.215,22.494,50.215,50.217V450.214z
				 M100.15,369.922c16.477,0,30.076,13.339,30.076,30.077v29.815H100.15c-16.478,0-30.077-13.339-30.077-30.077
				C70.073,383.521,83.673,369.922,100.15,369.922z"/>
		</g>
	</g>
</g>
</svg>
